HIERARCHY
ROOT hip
{
	OFFSET 0.000000 0.000000 0.000000
	CHANNELS 6 Xposition Yposition Zposition Xrotation Zrotation Yrotation 
	JOINT abdomen
	{
		OFFSET 0.000000 3.422050 0.000000
		CHANNELS 3 Xrotation Zrotation Yrotation 
		JOINT chest
		{
			OFFSET 0.000000 8.486693 -0.684411
			CHANNELS 3 Xrotation Zrotation Yrotation 
			JOINT neck
			{
				OFFSET 0.000000 10.266162 -0.273764
				CHANNELS 3 Xrotation Zrotation Yrotation 
				JOINT head
				{
					OFFSET 0.000000 3.148285 0.000000
					CHANNELS 3 Xrotation Zrotation Yrotation 
					End Site
					{
						OFFSET 0.000000 3.148289 0.000000
					}
				}
			}
			JOINT lCollar
			{
				OFFSET 3.422053 6.707223 -0.821293
				CHANNELS 3 Yrotation Zrotation Xrotation 
				JOINT lShldr
				{
					OFFSET 3.285171 0.000000 0.000000
					CHANNELS 3 Zrotation Yrotation Xrotation 
					JOINT lForeArm
					{
						OFFSET 10.129278 0.000000 0.000000
						CHANNELS 3 Yrotation Zrotation Xrotation 
						JOINT lHand
						{
							OFFSET 8.486692 0.000000 0.000000
							CHANNELS 3 Zrotation Yrotation Xrotation 
							End Site
							{
								OFFSET 4.106464 0.000000 0.000000
							}
						}
					}
				}
			}
			JOINT rCollar
			{
				OFFSET -3.558935 6.707223 -0.821293
				CHANNELS 3 Yrotation Zrotation Xrotation 
				JOINT rShldr
				{
					OFFSET -3.148289 0.000000 0.000000
					CHANNELS 3 Zrotation Yrotation Xrotation 
					JOINT rForeArm
					{
						OFFSET -10.266159 0.000000 0.000000
						CHANNELS 3 Yrotation Zrotation Xrotation 
						JOINT rHand
						{
							OFFSET -8.349810 0.000000 0.000000
							CHANNELS 3 Zrotation Yrotation Xrotation 
							End Site
							{
								OFFSET -4.106464 0.000000 0.000000
							}
						}
					}
				}
			}
		}
	}
	JOINT lThigh
	{
		OFFSET 5.338403 -1.642589 1.368821
		CHANNELS 3 Xrotation Zrotation Yrotation 
		JOINT lShin
		{
			OFFSET -2.053232 -20.121670 0.000000
			CHANNELS 3 Xrotation Zrotation Yrotation 
			JOINT lFoot
			{
				OFFSET 0.000000 -19.300380 -1.231939
				CHANNELS 3 Xrotation Yrotation Zrotation 
				End Site
				{
					OFFSET 0.000000 -2.463878 4.653993
				}
			}
		}
	}
	JOINT rThigh
	{
		OFFSET -5.338403 -1.642589 1.368821
		CHANNELS 3 Xrotation Zrotation Yrotation 
		JOINT rShin
		{
			OFFSET 2.053232 -20.121670 0.000000
			CHANNELS 3 Xrotation Zrotation Yrotation 
			JOINT rFoot
			{
				OFFSET 0.000000 -19.300380 -1.231939
				CHANNELS 3 Xrotation Yrotation Zrotation 
				End Site
				{
					OFFSET 0.000000 -2.463878 4.653993
				}
			}
		}
	}
}
MOTION
Frames: 17
Frame Time: 0.049897
19.995884 22.186924 12.708813 104.993195 0.003192 -179.995834 33.689411 -0.057916 8.967443 12.970380 -0.733862 0.340693 3.533437 -9.903111 11.355644 -21.006256 -7.336069 -6.316082 -21.863894 -4.638782 -20.488094 -5.588789 -1.863470 -12.754025 -59.877621 -77.124542 31.649851 -14.484967 34.919029 -12.284430 1.623516 7.402213 -6.720450 10.908102 33.248531 -10.752006 55.759762 29.578121 -7.243296 27.450623 -1.147780 -42.301701 -70.979523 37.501244 58.323486 55.767342 43.389416 -16.720148 27.481834 -3.685508 -3.881399 27.779793 -41.453682 -41.008858 55.697296 -42.865463 16.730555 10.350778 20.826063 36.170132 
19.995884 22.186924 12.708813 104.993195 0.003192 -179.995834 33.089691 -0.058107 8.967513 13.673070 -0.662456 0.302619 3.552548 -9.873417 11.265970 -20.688776 -7.100605 -6.354455 -21.886017 -3.390810 -20.875509 -5.588790 -1.863470 -12.754026 -62.979958 -77.433044 28.648340 -13.987420 35.269325 -13.018543 1.233499 6.611595 -7.546745 10.908103 33.248531 -10.752006 56.206234 29.694500 -7.459389 26.834606 -0.571435 -42.828384 -71.319649 37.578842 58.138653 55.767342 43.389416 -16.720148 27.481838 -3.685508 -3.881399 27.767857 -42.224003 -42.253498 55.692570 -42.869389 16.734158 10.570155 21.933928 35.059402 
19.995884 22.186924 12.708813 104.993195 0.003192 -179.995834 32.489841 -0.058296 8.967586 14.375919 -0.590566 0.265412 3.571614 -9.843692 11.176305 -20.371428 -6.864793 -6.391514 -21.899691 -2.141417 -21.262442 -5.588790 -1.863470 -12.754026 -66.226944 -77.704567 25.502182 -13.492849 35.625099 -13.752709 0.832264 5.825920 -8.377976 10.908102 33.248531 -10.752006 56.653767 29.809416 -7.676792 26.212967 -0.000466 -43.361530 -71.660461 37.655586 57.953064 55.767342 43.389416 -16.720148 27.481834 -3.685508 -3.881399 27.778679 -42.995361 -43.515087 55.687855 -42.873318 16.737757 10.814954 23.039175 33.933548 
19.995884 22.186924 12.708813 104.993195 0.003192 -179.995834 31.889891 -0.058486 8.967660 15.078871 -0.518209 0.229082 3.590633 -9.813929 11.086639 -20.054205 -6.628645 -6.427260 -21.904911 -0.890979 -21.649149 -5.588790 -1.863470 -12.754026 -69.607780 -77.936554 22.222162 -13.001415 35.986221 -14.486817 0.419856 5.045582 -9.214223 10.908101 33.248531 -10.752005 57.102337 29.922861 -7.895485 25.585724 0.564918 -43.901112 -72.001945 37.731434 57.766659 55.767342 43.389416 -16.720148 27.481834 -3.685508 -3.881399 27.813200 -43.767120 -44.794308 55.683136 -42.877243 16.741362 11.085869 24.140905 32.791801 
19.995884 22.186924 12.708813 104.993195 0.003192 -179.995834 31.289875 -0.058674 8.967737 15.781881 -0.445400 0.193638 3.609605 -9.784134 10.996982 -19.737108 -6.392177 -6.461692 -21.901688 0.360117 -22.035910 -5.588790 -1.863470 -12.754027 -73.107330 -78.126640 18.823439 -12.513285 36.352570 -15.220766 -0.003674 4.270973 -10.055552 10.908102 33.248531 -10.752006 57.551933 30.034819 -8.115458 24.952902 1.124508 -44.447105 -72.344086 37.806416 57.579533 55.767342 43.389416 -16.720148 27.481833 -3.685507 -3.881399 27.872385 -44.538628 -46.091877 55.678413 -42.881172 16.744965 11.383622 25.238222 31.633360 
19.995884 22.186924 12.708813 104.993195 0.003192 -179.995834 30.689827 -0.058862 8.967815 16.484890 -0.372156 0.159088 3.628532 -9.754306 10.907330 -19.420126 -6.155397 -6.494807 -21.890015 1.611490 -22.422981 -5.588790 -1.863470 -12.754026 -76.705750 -78.272697 15.325758 -12.028621 36.724018 -15.954456 -0.438270 3.502486 -10.902026 10.908102 33.248531 -10.752006 58.002541 30.145279 -8.336694 24.314524 1.678089 -44.999458 -72.686905 37.880520 57.391636 55.767342 43.389416 -16.720148 27.481838 -3.685508 -3.881399 27.957222 -45.309216 -47.408539 55.673683 -42.885090 16.748566 11.708948 26.330191 30.457409 
19.995884 22.186924 12.708813 104.993195 0.003192 -179.995834 30.089781 -0.059049 8.967896 17.187851 -0.298494 0.125439 3.647412 -9.724445 10.817683 -19.103262 -5.918322 -6.526608 -21.869865 2.862756 -22.810642 -5.588790 -1.863470 -12.754027 -80.379196 -78.373108 11.753038 -11.547573 37.100410 -16.687782 -0.883868 2.740506 -11.753693 10.908102 33.248531 -10.752006 58.454151 30.254234 -8.559178 23.670624 2.225457 -45.558125 -73.030373 37.953716 57.202980 55.767342 43.389416 -16.720148 27.481838 -3.685508 -3.881399 28.068748 -46.078220 -48.745110 55.668957 -42.889008 16.752169 12.062597 27.415865 29.263113 
19.995884 22.186924 12.708813 104.993195 0.003192 -179.995834 29.489769 -0.059235 8.967978 17.890709 -0.224430 0.092699 3.666246 -9.694550 10.728039 -18.786520 -5.680961 -6.557089 -21.841213 4.113529 -23.199162 -5.588790 -1.863470 -12.754026 -84.100471 -78.426659 8.132488 -11.070308 37.481625 -17.420654 -1.340396 1.985424 -12.610598 10.908102 33.248531 -10.752006 58.906734 30.361666 -8.782889 23.021246 2.766408 -46.123062 -73.374458 38.026024 57.013596 55.767342 43.389416 -16.720148 27.481833 -3.685507 -3.881399 28.207991 -46.844910 -50.102386 55.664246 -42.892948 16.755779 12.445333 28.494287 28.049623 
19.995884 22.186924 12.708813 104.993195 0.003192 -179.995834 28.889818 -0.059420 8.968064 18.593414 -0.149982 0.060875 3.685033 -9.664621 10.638403 -18.469885 -5.443330 -6.586253 -21.804014 5.363429 -23.588808 -5.588789 -1.863470 -12.754025 -87.839912 -78.432701 4.493732 -10.596975 37.867504 -18.152983 -1.807777 1.237621 -13.472766 10.908102 33.248531 -10.752006 59.360268 30.467558 -9.007811 22.366434 3.300737 -46.694214 -73.719193 38.097431 56.823471 55.767342 43.389416 -16.720148 27.481834 -3.685508 -3.881399 28.376053 -47.608608 -51.481274 55.659515 -42.896870 16.759382 12.857937 29.564484 26.816069 
19.995884 22.186924 12.708813 104.993195 0.003192 -179.995834 28.289978 -0.059604 8.968152 19.295916 -0.075166 0.029973 3.703773 -9.634658 10.548769 -18.153360 -5.205439 -6.614098 -21.758213 6.612065 -23.979853 -5.588790 -1.863470 -12.754026 -91.567184 -78.391212 0.867142 -10.127727 38.257893 -18.884668 -2.285924 0.497477 -14.340221 10.908102 33.248531 -10.752006 59.814739 30.571903 -9.233922 21.706245 3.828244 -47.271511 -74.064545 38.167934 56.632637 55.767342 43.389416 -16.720148 27.481836 -3.685508 -3.881399 28.573994 -48.368538 -52.882610 55.654778 -42.900784 16.762987 13.301192 30.625444 25.561569 
19.995884 22.186924 12.708813 104.993195 0.003192 -179.995834 27.690256 -0.059787 8.968241 19.998167 0.000000 0.000000 3.722467 -9.604663 10.459143 -17.836941 -4.967302 -6.640625 -21.703743 7.859062 -24.372578 -5.588789 -1.863470 -12.754025 -95.252426 -78.302742 -2.717454 -9.662718 38.652653 -19.615646 -2.774742 -0.234633 -15.212977 10.908102 33.248531 -10.752006 60.270130 30.674690 -9.461213 21.040735 4.348733 -47.854885 -74.410507 38.237522 56.441090 55.767342 43.389416 -16.720148 27.481836 -3.685508 -3.881399 28.802967 -49.123978 -54.307358 55.650059 -42.904716 16.766602 13.775906 31.676195 24.285248 
19.995884 22.186924 12.708813 104.993195 0.003192 -179.995834 28.289976 -0.059604 8.968151 19.295916 -0.075166 0.029973 3.741115 -9.574636 10.369521 -17.520618 -4.728932 -6.665833 -21.758209 6.612065 -23.979851 -5.588790 -1.863470 -12.754026 -91.567184 -78.391197 0.867126 -10.127728 38.257893 -18.884672 -2.285924 0.497477 -14.340223 10.908101 33.248531 -10.752006 59.814747 30.571907 -9.233926 21.706245 3.828244 -47.271511 -74.064545 38.167931 56.632626 55.767342 43.389416 -16.720148 27.481833 -3.685507 -3.881399 28.573994 -48.368538 -52.882610 55.645336 -42.908642 16.770214 13.301191 30.625444 25.561569 
19.995884 22.186924 12.708813 104.993195 0.003192 -179.995834 28.889822 -0.059420 8.968065 18.593414 -0.149982 0.060875 3.759715 -9.544575 10.279906 -17.204399 -4.490342 -6.689719 -21.804012 5.363428 -23.588802 -5.588789 -1.863470 -12.754025 -87.839912 -78.432709 4.493742 -10.596976 37.867504 -18.152983 -1.807777 1.237621 -13.472766 10.908102 33.248531 -10.752006 59.360268 30.467558 -9.007811 22.366434 3.300737 -46.694214 -73.719193 38.097431 56.823471 55.767342 43.389416 -16.720148 27.481838 -3.685508 -3.881399 28.376043 -47.608593 -51.481262 55.640606 -42.912567 16.773821 12.857937 29.564484 26.816069 
19.995884 22.186924 12.708813 104.993195 0.003192 -179.995834 29.489769 -0.059235 8.967978 17.890709 -0.224430 0.092699 3.778270 -9.514484 10.190298 -16.888275 -4.251545 -6.712284 -21.841213 4.113529 -23.199162 -5.588790 -1.863470 -12.754027 -84.100471 -78.426659 8.132488 -11.070308 37.481625 -17.420654 -1.340396 1.985424 -12.610598 10.908102 33.248531 -10.752006 58.906734 30.361666 -8.782889 23.021246 2.766408 -46.123062 -73.374458 38.026024 57.013596 55.767342 43.389416 -16.720148 27.481834 -3.685508 -3.881399 28.207991 -46.844910 -50.102386 55.635876 -42.916485 16.777430 12.445333 28.494287 28.049623 
19.995884 22.186924 12.708813 104.993195 0.003192 -179.995834 30.089781 -0.059049 8.967896 17.187851 -0.298494 0.125439 3.796776 -9.484357 10.100693 -16.572239 -4.012554 -6.733527 -21.869865 2.862756 -22.810644 -5.588790 -1.863470 -12.754026 -80.379234 -78.373131 11.753036 -11.547573 37.100407 -16.687780 -0.883868 2.740507 -11.753694 10.908100 33.248531 -10.752005 58.454151 30.254238 -8.559181 23.670626 2.225458 -45.558132 -73.030357 37.953712 57.202976 55.767342 43.389416 -16.720148 27.481833 -3.685507 -3.881399 28.068752 -46.078224 -48.745117 55.631145 -42.920410 16.781040 12.062594 27.415861 29.263109 
19.995884 22.186924 12.708813 104.993195 0.003192 -179.995834 30.689827 -0.058862 8.967815 16.484890 -0.372156 0.159088 3.815236 -9.454200 10.011095 -16.256292 -3.773380 -6.753448 -21.890015 1.611490 -22.422981 -5.588790 -1.863470 -12.754027 -76.705750 -78.272697 15.325758 -12.028621 36.724018 -15.954456 -0.438270 3.502486 -10.902026 10.908102 33.248531 -10.752006 58.002541 30.145279 -8.336694 24.314524 1.678089 -44.999458 -72.686905 37.880520 57.391636 55.767342 43.389416 -16.720148 27.481833 -3.685507 -3.881399 27.957222 -45.309216 -47.408539 55.626404 -42.924320 16.784647 11.708948 26.330191 30.457409 
19.995884 22.186924 12.708813 104.993195 0.003192 -179.995834 31.289875 -0.058674 8.967737 15.781881 -0.445400 0.193638 3.833649 -9.424008 9.921501 -15.940433 -3.534038 -6.772048 -21.901688 0.360116 -22.035908 -5.588790 -1.863470 -12.754026 -73.107323 -78.126617 18.823410 -12.513287 36.352573 -15.220766 -0.003674 4.270973 -10.055552 10.908103 33.248531 -10.752006 57.551926 30.034819 -8.115458 24.952908 1.124507 -44.447109 -72.344086 37.806416 57.579533 55.767342 43.389416 -16.720148 27.481838 -3.685508 -3.881399 27.872385 -44.538628 -46.091877 55.621689 -42.928253 16.788260 11.383625 25.238226 31.633360 
